<mxfile host="app.diagrams.net" agent="Mozilla/5.0 (Windows NT 10.0; Win64; x64) AppleWebKit/537.36 (KHTML, like Gecko) Chrome/129.0.0.0 Safari/537.36" version="24.7.16">
  <diagram name="Page-1" id="6ug1qO3O_DRxGS5PKa-o">
    <mxGraphModel dx="2261" dy="1987" grid="1" gridSize="10" guides="1" tooltips="1" connect="1" arrows="1" fold="1" page="1" pageScale="1" pageWidth="827" pageHeight="1169" math="0" shadow="0">
      <root>
        <mxCell id="0" />
        <mxCell id="1" parent="0" />
        <mxCell id="gZzGKzz8CknS4xBsOtCZ-5" value="" style="edgeStyle=orthogonalEdgeStyle;rounded=0;orthogonalLoop=1;jettySize=auto;html=1;entryX=0.5;entryY=0;entryDx=0;entryDy=0;" parent="1" edge="1">
          <mxGeometry relative="1" as="geometry">
            <mxPoint x="400" y="-900" as="targetPoint" />
            <mxPoint x="400.06666666666706" y="-980" as="sourcePoint" />
          </mxGeometry>
        </mxCell>
        <mxCell id="gZzGKzz8CknS4xBsOtCZ-10" value="" style="edgeStyle=orthogonalEdgeStyle;rounded=0;orthogonalLoop=1;jettySize=auto;html=1;" parent="1" target="gZzGKzz8CknS4xBsOtCZ-9" edge="1">
          <mxGeometry relative="1" as="geometry">
            <mxPoint x="400" y="-840" as="sourcePoint" />
          </mxGeometry>
        </mxCell>
        <mxCell id="gZzGKzz8CknS4xBsOtCZ-13" value="0" style="edgeStyle=orthogonalEdgeStyle;rounded=0;orthogonalLoop=1;jettySize=auto;html=1;exitX=0;exitY=0.5;exitDx=0;exitDy=0;entryX=0.533;entryY=0;entryDx=0;entryDy=0;entryPerimeter=0;" parent="1" edge="1">
          <mxGeometry relative="1" as="geometry">
            <mxPoint x="40.6099999999999" y="-520.06" as="targetPoint" />
            <mxPoint x="310" y="-695.06" as="sourcePoint" />
            <Array as="points">
              <mxPoint x="40" y="-695.06" />
              <mxPoint x="40" y="-520.06" />
            </Array>
          </mxGeometry>
        </mxCell>
        <mxCell id="gZzGKzz8CknS4xBsOtCZ-72" value="2" style="edgeStyle=orthogonalEdgeStyle;rounded=0;orthogonalLoop=1;jettySize=auto;html=1;" parent="1" source="gZzGKzz8CknS4xBsOtCZ-9" target="gZzGKzz8CknS4xBsOtCZ-70" edge="1">
          <mxGeometry relative="1" as="geometry" />
        </mxCell>
        <mxCell id="gZzGKzz8CknS4xBsOtCZ-100" value="3" style="edgeStyle=orthogonalEdgeStyle;rounded=0;orthogonalLoop=1;jettySize=auto;html=1;" parent="1" source="gZzGKzz8CknS4xBsOtCZ-9" target="gZzGKzz8CknS4xBsOtCZ-99" edge="1">
          <mxGeometry relative="1" as="geometry">
            <Array as="points">
              <mxPoint x="580" y="-650" />
            </Array>
          </mxGeometry>
        </mxCell>
        <mxCell id="XNF7zPnJHE5-cx8IuBFz-6" value="" style="edgeStyle=orthogonalEdgeStyle;rounded=0;orthogonalLoop=1;jettySize=auto;html=1;entryX=0.557;entryY=-0.007;entryDx=0;entryDy=0;entryPerimeter=0;" parent="1" source="gZzGKzz8CknS4xBsOtCZ-9" target="XNF7zPnJHE5-cx8IuBFz-7" edge="1">
          <mxGeometry relative="1" as="geometry">
            <mxPoint x="610.0000000000005" y="-695" as="targetPoint" />
          </mxGeometry>
        </mxCell>
        <mxCell id="gZzGKzz8CknS4xBsOtCZ-9" value="Pilih Jenis Bangun Ruang" style="rhombus;whiteSpace=wrap;html=1;" parent="1" vertex="1">
          <mxGeometry x="310" y="-770" width="180" height="150" as="geometry" />
        </mxCell>
        <mxCell id="gZzGKzz8CknS4xBsOtCZ-16" value="" style="edgeStyle=orthogonalEdgeStyle;rounded=0;orthogonalLoop=1;jettySize=auto;html=1;" parent="1" source="gZzGKzz8CknS4xBsOtCZ-14" edge="1">
          <mxGeometry relative="1" as="geometry">
            <mxPoint x="35" y="-380" as="targetPoint" />
          </mxGeometry>
        </mxCell>
        <mxCell id="gZzGKzz8CknS4xBsOtCZ-14" value="Output Terimakasih Telah&lt;div&gt;Menggunakan Kalkulator&lt;/div&gt;&lt;div&gt;Bangun Ruang!&lt;/div&gt;" style="shape=parallelogram;perimeter=parallelogramPerimeter;whiteSpace=wrap;html=1;fixedSize=1;" parent="1" vertex="1">
          <mxGeometry x="-50" y="-520" width="170" height="70" as="geometry" />
        </mxCell>
        <mxCell id="XNF7zPnJHE5-cx8IuBFz-1" value="" style="edgeStyle=orthogonalEdgeStyle;rounded=0;orthogonalLoop=1;jettySize=auto;html=1;" parent="1" edge="1">
          <mxGeometry relative="1" as="geometry">
            <mxPoint x="401.5" y="-1040" as="targetPoint" />
            <mxPoint x="401.5714285714289" y="-1090" as="sourcePoint" />
          </mxGeometry>
        </mxCell>
        <mxCell id="gZzGKzz8CknS4xBsOtCZ-46" value="1" style="edgeStyle=orthogonalEdgeStyle;rounded=0;orthogonalLoop=1;jettySize=auto;html=1;" parent="1" source="gZzGKzz8CknS4xBsOtCZ-26" target="gZzGKzz8CknS4xBsOtCZ-45" edge="1">
          <mxGeometry relative="1" as="geometry">
            <Array as="points">
              <mxPoint x="-530" y="190" />
            </Array>
          </mxGeometry>
        </mxCell>
        <mxCell id="gZzGKzz8CknS4xBsOtCZ-54" value="2" style="edgeStyle=orthogonalEdgeStyle;rounded=0;orthogonalLoop=1;jettySize=auto;html=1;" parent="1" source="gZzGKzz8CknS4xBsOtCZ-26" target="gZzGKzz8CknS4xBsOtCZ-53" edge="1">
          <mxGeometry relative="1" as="geometry" />
        </mxCell>
        <mxCell id="gZzGKzz8CknS4xBsOtCZ-63" value="3" style="edgeStyle=orthogonalEdgeStyle;rounded=0;orthogonalLoop=1;jettySize=auto;html=1;exitX=1;exitY=0.5;exitDx=0;exitDy=0;" parent="1" source="gZzGKzz8CknS4xBsOtCZ-26" target="gZzGKzz8CknS4xBsOtCZ-61" edge="1">
          <mxGeometry relative="1" as="geometry" />
        </mxCell>
        <mxCell id="gZzGKzz8CknS4xBsOtCZ-26" value="Apa Yang Mau Dihitung&amp;nbsp;&lt;div&gt;Dalam Kubus&lt;/div&gt;" style="rhombus;whiteSpace=wrap;html=1;strokeWidth=2;rounded=1;arcSize=12;" parent="1" vertex="1">
          <mxGeometry x="-320" y="120" width="180" height="140" as="geometry" />
        </mxCell>
        <mxCell id="gZzGKzz8CknS4xBsOtCZ-38" value="Input: Panjang Sisi" style="shape=parallelogram;perimeter=parallelogramPerimeter;fixedSize=1;strokeWidth=2;whiteSpace=wrap;" parent="1" vertex="1">
          <mxGeometry x="-616" y="409" width="170" height="34" as="geometry" />
        </mxCell>
        <mxCell id="gZzGKzz8CknS4xBsOtCZ-39" value="Menghitung Volume Kubus" style="whiteSpace=wrap;strokeWidth=2;" parent="1" vertex="1">
          <mxGeometry x="-590" y="511" width="120" height="49" as="geometry" />
        </mxCell>
        <mxCell id="XNF7zPnJHE5-cx8IuBFz-27" value="" style="edgeStyle=orthogonalEdgeStyle;rounded=0;orthogonalLoop=1;jettySize=auto;html=1;" parent="1" source="gZzGKzz8CknS4xBsOtCZ-40" target="XNF7zPnJHE5-cx8IuBFz-12" edge="1">
          <mxGeometry relative="1" as="geometry">
            <Array as="points">
              <mxPoint x="-531" y="790" />
              <mxPoint x="-300" y="790" />
            </Array>
          </mxGeometry>
        </mxCell>
        <mxCell id="gZzGKzz8CknS4xBsOtCZ-40" value="Output: Volume Kubus" style="shape=parallelogram;perimeter=parallelogramPerimeter;fixedSize=1;strokeWidth=2;whiteSpace=wrap;" parent="1" vertex="1">
          <mxGeometry x="-630" y="628" width="198" height="34" as="geometry" />
        </mxCell>
        <mxCell id="gZzGKzz8CknS4xBsOtCZ-41" value="" style="curved=1;startArrow=none;endArrow=block;exitX=0.5;exitY=1.01;entryX=0.5;entryY=0;rounded=0;" parent="1" source="gZzGKzz8CknS4xBsOtCZ-38" target="gZzGKzz8CknS4xBsOtCZ-39" edge="1">
          <mxGeometry relative="1" as="geometry">
            <Array as="points" />
          </mxGeometry>
        </mxCell>
        <mxCell id="gZzGKzz8CknS4xBsOtCZ-42" value="" style="curved=1;startArrow=none;endArrow=block;exitX=0.5;exitY=1;entryX=0.5;entryY=-0.01;rounded=0;" parent="1" source="gZzGKzz8CknS4xBsOtCZ-39" target="gZzGKzz8CknS4xBsOtCZ-40" edge="1">
          <mxGeometry relative="1" as="geometry">
            <Array as="points" />
          </mxGeometry>
        </mxCell>
        <mxCell id="r7DnVKMwtTVWdu5Gzjm_-19" value="" style="edgeStyle=orthogonalEdgeStyle;rounded=0;orthogonalLoop=1;jettySize=auto;html=1;" parent="1" source="gZzGKzz8CknS4xBsOtCZ-45" target="r7DnVKMwtTVWdu5Gzjm_-18" edge="1">
          <mxGeometry relative="1" as="geometry" />
        </mxCell>
        <mxCell id="gZzGKzz8CknS4xBsOtCZ-45" value="Volume Kubus" style="shape=parallelogram;perimeter=parallelogramPerimeter;whiteSpace=wrap;html=1;fixedSize=1;strokeWidth=2;rounded=1;arcSize=12;" parent="1" vertex="1">
          <mxGeometry x="-591" y="220" width="120" height="60" as="geometry" />
        </mxCell>
        <mxCell id="XNF7zPnJHE5-cx8IuBFz-30" value="" style="edgeStyle=orthogonalEdgeStyle;rounded=0;orthogonalLoop=1;jettySize=auto;html=1;" parent="1" source="gZzGKzz8CknS4xBsOtCZ-48" target="gZzGKzz8CknS4xBsOtCZ-49" edge="1">
          <mxGeometry relative="1" as="geometry" />
        </mxCell>
        <mxCell id="gZzGKzz8CknS4xBsOtCZ-48" value="Input: Panjang Sisi" style="shape=parallelogram;perimeter=parallelogramPerimeter;fixedSize=1;strokeWidth=2;whiteSpace=wrap;" parent="1" vertex="1">
          <mxGeometry x="-385" y="478.5" width="170" height="34" as="geometry" />
        </mxCell>
        <mxCell id="gZzGKzz8CknS4xBsOtCZ-49" value="Menghitung Luas Permukaan Kubus" style="whiteSpace=wrap;strokeWidth=2;" parent="1" vertex="1">
          <mxGeometry x="-370" y="588.5" width="140" height="50" as="geometry" />
        </mxCell>
        <mxCell id="XNF7zPnJHE5-cx8IuBFz-26" value="" style="edgeStyle=orthogonalEdgeStyle;rounded=0;orthogonalLoop=1;jettySize=auto;html=1;" parent="1" source="gZzGKzz8CknS4xBsOtCZ-50" target="XNF7zPnJHE5-cx8IuBFz-12" edge="1">
          <mxGeometry relative="1" as="geometry" />
        </mxCell>
        <mxCell id="gZzGKzz8CknS4xBsOtCZ-50" value="Output: Luas Permukaan Kubus" style="shape=parallelogram;perimeter=parallelogramPerimeter;fixedSize=1;strokeWidth=2;whiteSpace=wrap;" parent="1" vertex="1">
          <mxGeometry x="-410" y="708.5" width="220" height="32" as="geometry" />
        </mxCell>
        <mxCell id="gZzGKzz8CknS4xBsOtCZ-51" value="" style="curved=1;startArrow=none;endArrow=block;exitX=0.5;exitY=1.01;entryX=0.5;entryY=0;rounded=0;" parent="1" source="gZzGKzz8CknS4xBsOtCZ-48" target="gZzGKzz8CknS4xBsOtCZ-49" edge="1">
          <mxGeometry relative="1" as="geometry">
            <Array as="points" />
          </mxGeometry>
        </mxCell>
        <mxCell id="gZzGKzz8CknS4xBsOtCZ-52" value="" style="curved=1;startArrow=none;endArrow=block;exitX=0.5;exitY=1;entryX=0.5;entryY=0;rounded=0;" parent="1" source="gZzGKzz8CknS4xBsOtCZ-49" target="gZzGKzz8CknS4xBsOtCZ-50" edge="1">
          <mxGeometry relative="1" as="geometry">
            <Array as="points" />
          </mxGeometry>
        </mxCell>
        <mxCell id="r7DnVKMwtTVWdu5Gzjm_-24" value="" style="edgeStyle=orthogonalEdgeStyle;rounded=0;orthogonalLoop=1;jettySize=auto;html=1;" parent="1" source="gZzGKzz8CknS4xBsOtCZ-53" target="r7DnVKMwtTVWdu5Gzjm_-21" edge="1">
          <mxGeometry relative="1" as="geometry" />
        </mxCell>
        <mxCell id="gZzGKzz8CknS4xBsOtCZ-53" value="Luas Permukaan Kubus" style="shape=parallelogram;perimeter=parallelogramPerimeter;whiteSpace=wrap;html=1;fixedSize=1;strokeWidth=2;rounded=1;arcSize=12;" parent="1" vertex="1">
          <mxGeometry x="-380" y="309" width="160" height="60" as="geometry" />
        </mxCell>
        <mxCell id="gZzGKzz8CknS4xBsOtCZ-56" value="Input: Panjang Sisi" style="shape=parallelogram;perimeter=parallelogramPerimeter;fixedSize=1;strokeWidth=2;whiteSpace=wrap;" parent="1" vertex="1">
          <mxGeometry x="-164" y="521.5" width="170" height="34" as="geometry" />
        </mxCell>
        <mxCell id="gZzGKzz8CknS4xBsOtCZ-57" value="Menghitung Diagonal Kubus" style="whiteSpace=wrap;strokeWidth=2;" parent="1" vertex="1">
          <mxGeometry x="-163" y="631.5" width="160" height="50" as="geometry" />
        </mxCell>
        <mxCell id="XNF7zPnJHE5-cx8IuBFz-28" value="" style="edgeStyle=orthogonalEdgeStyle;rounded=0;orthogonalLoop=1;jettySize=auto;html=1;" parent="1" source="gZzGKzz8CknS4xBsOtCZ-58" target="XNF7zPnJHE5-cx8IuBFz-12" edge="1">
          <mxGeometry relative="1" as="geometry">
            <Array as="points">
              <mxPoint x="-77" y="790" />
              <mxPoint x="-300" y="790" />
            </Array>
          </mxGeometry>
        </mxCell>
        <mxCell id="gZzGKzz8CknS4xBsOtCZ-58" value="Output: Diagonal Kubus" style="shape=parallelogram;perimeter=parallelogramPerimeter;fixedSize=1;strokeWidth=2;whiteSpace=wrap;" parent="1" vertex="1">
          <mxGeometry x="-183" y="740.5" width="206" height="34" as="geometry" />
        </mxCell>
        <mxCell id="gZzGKzz8CknS4xBsOtCZ-59" value="" style="curved=1;startArrow=none;endArrow=block;exitX=0.5;exitY=1.01;entryX=0.5;entryY=0;rounded=0;" parent="1" source="gZzGKzz8CknS4xBsOtCZ-56" target="gZzGKzz8CknS4xBsOtCZ-57" edge="1">
          <mxGeometry relative="1" as="geometry">
            <Array as="points" />
          </mxGeometry>
        </mxCell>
        <mxCell id="gZzGKzz8CknS4xBsOtCZ-60" value="" style="curved=1;startArrow=none;endArrow=block;exitX=0.5;exitY=1;entryX=0.5;entryY=-0.01;rounded=0;" parent="1" source="gZzGKzz8CknS4xBsOtCZ-57" target="gZzGKzz8CknS4xBsOtCZ-58" edge="1">
          <mxGeometry relative="1" as="geometry">
            <Array as="points" />
          </mxGeometry>
        </mxCell>
        <mxCell id="r7DnVKMwtTVWdu5Gzjm_-27" value="" style="edgeStyle=orthogonalEdgeStyle;rounded=0;orthogonalLoop=1;jettySize=auto;html=1;" parent="1" source="gZzGKzz8CknS4xBsOtCZ-61" target="r7DnVKMwtTVWdu5Gzjm_-26" edge="1">
          <mxGeometry relative="1" as="geometry" />
        </mxCell>
        <mxCell id="gZzGKzz8CknS4xBsOtCZ-61" value="Diagonal Kubus" style="shape=parallelogram;perimeter=parallelogramPerimeter;whiteSpace=wrap;html=1;fixedSize=1;strokeWidth=2;rounded=1;arcSize=12;" parent="1" vertex="1">
          <mxGeometry x="-161" y="318" width="160" height="60" as="geometry" />
        </mxCell>
        <mxCell id="gZzGKzz8CknS4xBsOtCZ-170" value="" style="edgeStyle=orthogonalEdgeStyle;rounded=0;orthogonalLoop=1;jettySize=auto;html=1;" parent="1" source="gZzGKzz8CknS4xBsOtCZ-70" target="gZzGKzz8CknS4xBsOtCZ-169" edge="1">
          <mxGeometry relative="1" as="geometry" />
        </mxCell>
        <mxCell id="gZzGKzz8CknS4xBsOtCZ-70" value="Menu Balok" style="shape=parallelogram;html=1;strokeWidth=2;perimeter=parallelogramPerimeter;whiteSpace=wrap;rounded=1;arcSize=12;size=0.23;" parent="1" vertex="1">
          <mxGeometry x="350" y="-510" width="100" height="60" as="geometry" />
        </mxCell>
        <mxCell id="gZzGKzz8CknS4xBsOtCZ-81" value="1" style="edgeStyle=orthogonalEdgeStyle;rounded=0;orthogonalLoop=1;jettySize=auto;html=1;" parent="1" source="gZzGKzz8CknS4xBsOtCZ-73" target="gZzGKzz8CknS4xBsOtCZ-80" edge="1">
          <mxGeometry relative="1" as="geometry">
            <Array as="points">
              <mxPoint x="430" y="145" />
            </Array>
          </mxGeometry>
        </mxCell>
        <mxCell id="gZzGKzz8CknS4xBsOtCZ-86" value="2" style="edgeStyle=orthogonalEdgeStyle;rounded=0;orthogonalLoop=1;jettySize=auto;html=1;" parent="1" source="gZzGKzz8CknS4xBsOtCZ-73" target="gZzGKzz8CknS4xBsOtCZ-85" edge="1">
          <mxGeometry relative="1" as="geometry" />
        </mxCell>
        <mxCell id="gZzGKzz8CknS4xBsOtCZ-142" value="" style="edgeStyle=orthogonalEdgeStyle;rounded=0;orthogonalLoop=1;jettySize=auto;html=1;" parent="1" source="gZzGKzz8CknS4xBsOtCZ-73" target="gZzGKzz8CknS4xBsOtCZ-141" edge="1">
          <mxGeometry relative="1" as="geometry" />
        </mxCell>
        <mxCell id="gZzGKzz8CknS4xBsOtCZ-73" value="Apa Yang Mau&lt;div&gt;Dihitung Pada Balok&lt;/div&gt;" style="rhombus;whiteSpace=wrap;html=1;strokeWidth=2;rounded=1;arcSize=12;" parent="1" vertex="1">
          <mxGeometry x="599.5" y="70" width="160" height="150" as="geometry" />
        </mxCell>
        <mxCell id="gZzGKzz8CknS4xBsOtCZ-75" value="Input: Panjang, Lebar, Tinggi" style="shape=parallelogram;perimeter=parallelogramPerimeter;fixedSize=1;strokeWidth=2;whiteSpace=wrap;" parent="1" vertex="1">
          <mxGeometry x="320" y="373.5" width="208" height="52" as="geometry" />
        </mxCell>
        <mxCell id="gZzGKzz8CknS4xBsOtCZ-76" value="Menghitung Volume Balok" style="whiteSpace=wrap;strokeWidth=2;" parent="1" vertex="1">
          <mxGeometry x="325.5" y="493.5" width="190" height="39" as="geometry" />
        </mxCell>
        <mxCell id="XNF7zPnJHE5-cx8IuBFz-19" value="" style="edgeStyle=orthogonalEdgeStyle;rounded=0;orthogonalLoop=1;jettySize=auto;html=1;" parent="1" source="gZzGKzz8CknS4xBsOtCZ-77" target="XNF7zPnJHE5-cx8IuBFz-17" edge="1">
          <mxGeometry relative="1" as="geometry" />
        </mxCell>
        <mxCell id="gZzGKzz8CknS4xBsOtCZ-77" value="Output: Volume Balok" style="shape=parallelogram;perimeter=parallelogramPerimeter;fixedSize=1;strokeWidth=2;whiteSpace=wrap;" parent="1" vertex="1">
          <mxGeometry x="327" y="600.5" width="195" height="34" as="geometry" />
        </mxCell>
        <mxCell id="gZzGKzz8CknS4xBsOtCZ-79" value="" style="curved=1;startArrow=none;endArrow=block;exitX=0.5;exitY=1;entryX=0.5;entryY=-0.01;rounded=0;" parent="1" source="gZzGKzz8CknS4xBsOtCZ-76" target="gZzGKzz8CknS4xBsOtCZ-77" edge="1">
          <mxGeometry relative="1" as="geometry">
            <Array as="points" />
          </mxGeometry>
        </mxCell>
        <mxCell id="r7DnVKMwtTVWdu5Gzjm_-30" value="" style="edgeStyle=orthogonalEdgeStyle;rounded=0;orthogonalLoop=1;jettySize=auto;html=1;" parent="1" source="gZzGKzz8CknS4xBsOtCZ-80" target="r7DnVKMwtTVWdu5Gzjm_-29" edge="1">
          <mxGeometry relative="1" as="geometry" />
        </mxCell>
        <mxCell id="gZzGKzz8CknS4xBsOtCZ-80" value="Vollume Balok" style="shape=parallelogram;perimeter=parallelogramPerimeter;whiteSpace=wrap;html=1;fixedSize=1;strokeWidth=2;rounded=1;arcSize=12;" parent="1" vertex="1">
          <mxGeometry x="364.5" y="190" width="120" height="60" as="geometry" />
        </mxCell>
        <mxCell id="gZzGKzz8CknS4xBsOtCZ-84" value="" style="endArrow=classic;html=1;rounded=0;exitX=0.5;exitY=1;exitDx=0;exitDy=0;entryX=0.5;entryY=0;entryDx=0;entryDy=0;" parent="1" source="gZzGKzz8CknS4xBsOtCZ-75" target="gZzGKzz8CknS4xBsOtCZ-76" edge="1">
          <mxGeometry width="50" height="50" relative="1" as="geometry">
            <mxPoint x="425.5" y="483.5" as="sourcePoint" />
            <mxPoint x="475.5" y="433.5" as="targetPoint" />
          </mxGeometry>
        </mxCell>
        <mxCell id="r7DnVKMwtTVWdu5Gzjm_-33" value="" style="edgeStyle=orthogonalEdgeStyle;rounded=0;orthogonalLoop=1;jettySize=auto;html=1;" parent="1" source="gZzGKzz8CknS4xBsOtCZ-85" target="r7DnVKMwtTVWdu5Gzjm_-32" edge="1">
          <mxGeometry relative="1" as="geometry" />
        </mxCell>
        <mxCell id="gZzGKzz8CknS4xBsOtCZ-85" value="Luas Permukaan&lt;br&gt;Balok" style="shape=parallelogram;perimeter=parallelogramPerimeter;whiteSpace=wrap;html=1;fixedSize=1;strokeWidth=2;rounded=1;arcSize=12;" parent="1" vertex="1">
          <mxGeometry x="604.5" y="278.5" width="150" height="60" as="geometry" />
        </mxCell>
        <mxCell id="gZzGKzz8CknS4xBsOtCZ-87" value="Input: Panjang, Lebar, Tinggi" style="shape=parallelogram;perimeter=parallelogramPerimeter;fixedSize=1;strokeWidth=2;whiteSpace=wrap;" parent="1" vertex="1">
          <mxGeometry x="575.5" y="449.5" width="208" height="52" as="geometry" />
        </mxCell>
        <mxCell id="gZzGKzz8CknS4xBsOtCZ-88" value="Menghitung Luas Permukaan Balok" style="whiteSpace=wrap;strokeWidth=2;" parent="1" vertex="1">
          <mxGeometry x="582.5" y="559.5" width="190" height="58" as="geometry" />
        </mxCell>
        <mxCell id="XNF7zPnJHE5-cx8IuBFz-18" value="" style="edgeStyle=orthogonalEdgeStyle;rounded=0;orthogonalLoop=1;jettySize=auto;html=1;" parent="1" source="gZzGKzz8CknS4xBsOtCZ-89" target="XNF7zPnJHE5-cx8IuBFz-17" edge="1">
          <mxGeometry relative="1" as="geometry">
            <Array as="points">
              <mxPoint x="680" y="770" />
              <mxPoint x="600" y="770" />
            </Array>
          </mxGeometry>
        </mxCell>
        <mxCell id="gZzGKzz8CknS4xBsOtCZ-89" value="Output: Luas Permukaan Balok" style="shape=parallelogram;perimeter=parallelogramPerimeter;fixedSize=1;strokeWidth=2;whiteSpace=wrap;" parent="1" vertex="1">
          <mxGeometry x="566.5" y="667.5" width="226" height="52" as="geometry" />
        </mxCell>
        <mxCell id="gZzGKzz8CknS4xBsOtCZ-91" value="" style="curved=1;startArrow=none;endArrow=block;exitX=0.5;exitY=1;entryX=0.5;entryY=0;rounded=0;" parent="1" source="gZzGKzz8CknS4xBsOtCZ-88" target="gZzGKzz8CknS4xBsOtCZ-89" edge="1">
          <mxGeometry relative="1" as="geometry">
            <Array as="points" />
          </mxGeometry>
        </mxCell>
        <mxCell id="gZzGKzz8CknS4xBsOtCZ-97" value="" style="endArrow=classic;html=1;rounded=0;exitX=0.466;exitY=1;exitDx=0;exitDy=0;exitPerimeter=0;entryX=0.468;entryY=0.017;entryDx=0;entryDy=0;entryPerimeter=0;" parent="1" source="gZzGKzz8CknS4xBsOtCZ-87" target="gZzGKzz8CknS4xBsOtCZ-88" edge="1">
          <mxGeometry width="50" height="50" relative="1" as="geometry">
            <mxPoint x="682.5" y="579.5" as="sourcePoint" />
            <mxPoint x="732.5" y="529.5" as="targetPoint" />
          </mxGeometry>
        </mxCell>
        <mxCell id="gZzGKzz8CknS4xBsOtCZ-173" value="" style="edgeStyle=orthogonalEdgeStyle;rounded=0;orthogonalLoop=1;jettySize=auto;html=1;" parent="1" source="gZzGKzz8CknS4xBsOtCZ-99" target="gZzGKzz8CknS4xBsOtCZ-171" edge="1">
          <mxGeometry relative="1" as="geometry" />
        </mxCell>
        <mxCell id="gZzGKzz8CknS4xBsOtCZ-99" value="Menu Silinder" style="shape=parallelogram;html=1;strokeWidth=2;perimeter=parallelogramPerimeter;whiteSpace=wrap;rounded=1;arcSize=12;size=0.23;" parent="1" vertex="1">
          <mxGeometry x="520" y="-530" width="110" height="60" as="geometry" />
        </mxCell>
        <mxCell id="gZzGKzz8CknS4xBsOtCZ-101" value="Input: Jari-jari, Tinggi" style="shape=parallelogram;perimeter=parallelogramPerimeter;fixedSize=1;strokeWidth=2;whiteSpace=wrap;" parent="1" vertex="1">
          <mxGeometry x="1177" y="400" width="196" height="34" as="geometry" />
        </mxCell>
        <mxCell id="gZzGKzz8CknS4xBsOtCZ-102" value="Menghitung Volume Silinder" style="whiteSpace=wrap;strokeWidth=2;" parent="1" vertex="1">
          <mxGeometry x="1150" y="502" width="250" height="49" as="geometry" />
        </mxCell>
        <mxCell id="XNF7zPnJHE5-cx8IuBFz-22" value="" style="edgeStyle=orthogonalEdgeStyle;rounded=0;orthogonalLoop=1;jettySize=auto;html=1;" parent="1" source="gZzGKzz8CknS4xBsOtCZ-103" target="XNF7zPnJHE5-cx8IuBFz-20" edge="1">
          <mxGeometry relative="1" as="geometry" />
        </mxCell>
        <mxCell id="gZzGKzz8CknS4xBsOtCZ-103" value="Output: Volume Silinder" style="shape=parallelogram;perimeter=parallelogramPerimeter;fixedSize=1;strokeWidth=2;whiteSpace=wrap;" parent="1" vertex="1">
          <mxGeometry x="1170" y="619" width="210" height="34" as="geometry" />
        </mxCell>
        <mxCell id="gZzGKzz8CknS4xBsOtCZ-104" value="" style="curved=1;startArrow=none;endArrow=block;exitX=0.5;exitY=1.01;entryX=0.5;entryY=0;rounded=0;" parent="1" source="gZzGKzz8CknS4xBsOtCZ-101" target="gZzGKzz8CknS4xBsOtCZ-102" edge="1">
          <mxGeometry relative="1" as="geometry">
            <Array as="points" />
          </mxGeometry>
        </mxCell>
        <mxCell id="gZzGKzz8CknS4xBsOtCZ-105" value="" style="curved=1;startArrow=none;endArrow=block;exitX=0.5;exitY=1;entryX=0.5;entryY=-0.01;rounded=0;" parent="1" source="gZzGKzz8CknS4xBsOtCZ-102" target="gZzGKzz8CknS4xBsOtCZ-103" edge="1">
          <mxGeometry relative="1" as="geometry">
            <Array as="points" />
          </mxGeometry>
        </mxCell>
        <mxCell id="gZzGKzz8CknS4xBsOtCZ-109" value="1" style="edgeStyle=orthogonalEdgeStyle;rounded=0;orthogonalLoop=1;jettySize=auto;html=1;" parent="1" source="gZzGKzz8CknS4xBsOtCZ-106" target="gZzGKzz8CknS4xBsOtCZ-108" edge="1">
          <mxGeometry relative="1" as="geometry" />
        </mxCell>
        <mxCell id="gZzGKzz8CknS4xBsOtCZ-112" value="2" style="edgeStyle=orthogonalEdgeStyle;rounded=0;orthogonalLoop=1;jettySize=auto;html=1;" parent="1" source="gZzGKzz8CknS4xBsOtCZ-106" target="gZzGKzz8CknS4xBsOtCZ-111" edge="1">
          <mxGeometry relative="1" as="geometry" />
        </mxCell>
        <mxCell id="gZzGKzz8CknS4xBsOtCZ-140" value="" style="edgeStyle=orthogonalEdgeStyle;rounded=0;orthogonalLoop=1;jettySize=auto;html=1;" parent="1" source="gZzGKzz8CknS4xBsOtCZ-106" target="gZzGKzz8CknS4xBsOtCZ-139" edge="1">
          <mxGeometry relative="1" as="geometry" />
        </mxCell>
        <mxCell id="gZzGKzz8CknS4xBsOtCZ-106" value="Apa Yang Mau&lt;div&gt;Dihitung Pada&amp;nbsp;&lt;br&gt;Silinder&lt;/div&gt;" style="rhombus;whiteSpace=wrap;html=1;strokeWidth=2;rounded=1;arcSize=12;" parent="1" vertex="1">
          <mxGeometry x="1460" y="30" width="160" height="140" as="geometry" />
        </mxCell>
        <mxCell id="r7DnVKMwtTVWdu5Gzjm_-36" value="" style="edgeStyle=orthogonalEdgeStyle;rounded=0;orthogonalLoop=1;jettySize=auto;html=1;" parent="1" source="gZzGKzz8CknS4xBsOtCZ-108" target="r7DnVKMwtTVWdu5Gzjm_-35" edge="1">
          <mxGeometry relative="1" as="geometry" />
        </mxCell>
        <mxCell id="gZzGKzz8CknS4xBsOtCZ-108" value="Volume Silinder" style="shape=parallelogram;perimeter=parallelogramPerimeter;whiteSpace=wrap;html=1;fixedSize=1;strokeWidth=2;rounded=1;arcSize=12;" parent="1" vertex="1">
          <mxGeometry x="1215" y="210" width="120" height="60" as="geometry" />
        </mxCell>
        <mxCell id="r7DnVKMwtTVWdu5Gzjm_-39" value="" style="edgeStyle=orthogonalEdgeStyle;rounded=0;orthogonalLoop=1;jettySize=auto;html=1;" parent="1" source="gZzGKzz8CknS4xBsOtCZ-111" target="r7DnVKMwtTVWdu5Gzjm_-38" edge="1">
          <mxGeometry relative="1" as="geometry" />
        </mxCell>
        <mxCell id="gZzGKzz8CknS4xBsOtCZ-111" value="Keliling Alas&amp;nbsp;&lt;div&gt;Silinder&lt;/div&gt;" style="shape=parallelogram;perimeter=parallelogramPerimeter;whiteSpace=wrap;html=1;fixedSize=1;strokeWidth=2;rounded=1;arcSize=12;" parent="1" vertex="1">
          <mxGeometry x="1480" y="210" width="120" height="60" as="geometry" />
        </mxCell>
        <mxCell id="gZzGKzz8CknS4xBsOtCZ-114" value="Input: Jari-jari" style="shape=parallelogram;perimeter=parallelogramPerimeter;fixedSize=1;strokeWidth=2;whiteSpace=wrap;" parent="1" vertex="1">
          <mxGeometry x="1458" y="391" width="164" height="34" as="geometry" />
        </mxCell>
        <mxCell id="gZzGKzz8CknS4xBsOtCZ-115" value="Menghitung Keliling Alas&#xa;Silinder" style="whiteSpace=wrap;strokeWidth=2;" parent="1" vertex="1">
          <mxGeometry x="1458" y="500" width="160" height="51" as="geometry" />
        </mxCell>
        <mxCell id="XNF7zPnJHE5-cx8IuBFz-21" value="" style="edgeStyle=orthogonalEdgeStyle;rounded=0;orthogonalLoop=1;jettySize=auto;html=1;" parent="1" source="gZzGKzz8CknS4xBsOtCZ-116" target="XNF7zPnJHE5-cx8IuBFz-20" edge="1">
          <mxGeometry relative="1" as="geometry" />
        </mxCell>
        <mxCell id="gZzGKzz8CknS4xBsOtCZ-116" value="Output: Keliling Alas Silinder" style="shape=parallelogram;perimeter=parallelogramPerimeter;fixedSize=1;strokeWidth=2;whiteSpace=wrap;" parent="1" vertex="1">
          <mxGeometry x="1442" y="601" width="196" height="52" as="geometry" />
        </mxCell>
        <mxCell id="gZzGKzz8CknS4xBsOtCZ-117" value="" style="curved=1;startArrow=none;endArrow=block;exitX=0.5;exitY=1.01;entryX=0.5;entryY=0;rounded=0;" parent="1" source="gZzGKzz8CknS4xBsOtCZ-114" target="gZzGKzz8CknS4xBsOtCZ-115" edge="1">
          <mxGeometry relative="1" as="geometry">
            <Array as="points" />
          </mxGeometry>
        </mxCell>
        <mxCell id="gZzGKzz8CknS4xBsOtCZ-118" value="" style="curved=1;startArrow=none;endArrow=block;exitX=0.5;exitY=1;entryX=0.5;entryY=0;rounded=0;" parent="1" source="gZzGKzz8CknS4xBsOtCZ-115" target="gZzGKzz8CknS4xBsOtCZ-116" edge="1">
          <mxGeometry relative="1" as="geometry">
            <Array as="points" />
          </mxGeometry>
        </mxCell>
        <mxCell id="gZzGKzz8CknS4xBsOtCZ-168" value="" style="edgeStyle=orthogonalEdgeStyle;rounded=0;orthogonalLoop=1;jettySize=auto;html=1;" parent="1" source="gZzGKzz8CknS4xBsOtCZ-131" target="gZzGKzz8CknS4xBsOtCZ-166" edge="1">
          <mxGeometry relative="1" as="geometry" />
        </mxCell>
        <mxCell id="gZzGKzz8CknS4xBsOtCZ-131" value="Menu Kubus" style="shape=parallelogram;html=1;strokeWidth=2;perimeter=parallelogramPerimeter;whiteSpace=wrap;rounded=1;arcSize=12;size=0.23;" parent="1" vertex="1">
          <mxGeometry x="165.5" y="-520" width="100" height="60" as="geometry" />
        </mxCell>
        <mxCell id="gZzGKzz8CknS4xBsOtCZ-132" value="1" style="endArrow=classic;html=1;rounded=0;exitX=0.28;exitY=0.804;exitDx=0;exitDy=0;exitPerimeter=0;entryX=0.559;entryY=-0.022;entryDx=0;entryDy=0;entryPerimeter=0;" parent="1" source="gZzGKzz8CknS4xBsOtCZ-9" target="gZzGKzz8CknS4xBsOtCZ-131" edge="1">
          <mxGeometry width="50" height="50" relative="1" as="geometry">
            <mxPoint x="370" y="-570" as="sourcePoint" />
            <mxPoint x="210" y="-650" as="targetPoint" />
            <Array as="points">
              <mxPoint x="220" y="-650" />
            </Array>
          </mxGeometry>
        </mxCell>
        <mxCell id="XNF7zPnJHE5-cx8IuBFz-23" value="" style="edgeStyle=orthogonalEdgeStyle;rounded=0;orthogonalLoop=1;jettySize=auto;html=1;" parent="1" source="gZzGKzz8CknS4xBsOtCZ-139" target="XNF7zPnJHE5-cx8IuBFz-20" edge="1">
          <mxGeometry relative="1" as="geometry">
            <Array as="points">
              <mxPoint x="1765" y="770" />
              <mxPoint x="1465" y="770" />
            </Array>
          </mxGeometry>
        </mxCell>
        <mxCell id="gZzGKzz8CknS4xBsOtCZ-139" value="Maaf Pilihan Ini&lt;br&gt;Tidak Tersedia" style="shape=parallelogram;perimeter=parallelogramPerimeter;whiteSpace=wrap;html=1;fixedSize=1;strokeWidth=2;rounded=1;arcSize=12;" parent="1" vertex="1">
          <mxGeometry x="1690" y="220" width="150" height="90" as="geometry" />
        </mxCell>
        <mxCell id="XNF7zPnJHE5-cx8IuBFz-24" value="" style="edgeStyle=orthogonalEdgeStyle;rounded=0;orthogonalLoop=1;jettySize=auto;html=1;" parent="1" source="gZzGKzz8CknS4xBsOtCZ-141" target="XNF7zPnJHE5-cx8IuBFz-17" edge="1">
          <mxGeometry relative="1" as="geometry">
            <Array as="points">
              <mxPoint x="896" y="770" />
              <mxPoint x="601" y="770" />
            </Array>
          </mxGeometry>
        </mxCell>
        <mxCell id="gZzGKzz8CknS4xBsOtCZ-141" value="Maaf Pilihan Ini&lt;br&gt;Tidak Tersedia" style="shape=parallelogram;perimeter=parallelogramPerimeter;whiteSpace=wrap;html=1;fixedSize=1;strokeWidth=2;rounded=1;arcSize=12;" parent="1" vertex="1">
          <mxGeometry x="824" y="284" width="144.5" height="60" as="geometry" />
        </mxCell>
        <mxCell id="r7DnVKMwtTVWdu5Gzjm_-47" style="edgeStyle=orthogonalEdgeStyle;rounded=0;orthogonalLoop=1;jettySize=auto;html=1;exitX=0.412;exitY=1;exitDx=0;exitDy=0;exitPerimeter=0;" parent="1" source="gZzGKzz8CknS4xBsOtCZ-143" target="XNF7zPnJHE5-cx8IuBFz-12" edge="1">
          <mxGeometry relative="1" as="geometry">
            <Array as="points">
              <mxPoint x="40" y="250" />
              <mxPoint x="40" y="790" />
              <mxPoint x="-300" y="790" />
            </Array>
          </mxGeometry>
        </mxCell>
        <mxCell id="gZzGKzz8CknS4xBsOtCZ-143" value="Maaf Pilihan Ini&amp;nbsp;&lt;br&gt;Tidak Tersedia" style="shape=parallelogram;html=1;strokeWidth=2;perimeter=parallelogramPerimeter;whiteSpace=wrap;rounded=1;arcSize=12;size=0.23;" parent="1" vertex="1">
          <mxGeometry x="-40" y="190" width="170" height="60" as="geometry" />
        </mxCell>
        <mxCell id="r7DnVKMwtTVWdu5Gzjm_-16" value="" style="edgeStyle=orthogonalEdgeStyle;rounded=0;orthogonalLoop=1;jettySize=auto;html=1;" parent="1" source="gZzGKzz8CknS4xBsOtCZ-160" target="r7DnVKMwtTVWdu5Gzjm_-9" edge="1">
          <mxGeometry relative="1" as="geometry" />
        </mxCell>
        <mxCell id="gZzGKzz8CknS4xBsOtCZ-160" value="3" style="strokeWidth=2;html=1;shape=mxgraph.flowchart.start_2;whiteSpace=wrap;" parent="1" vertex="1">
          <mxGeometry x="1510" y="-210" width="60" height="60" as="geometry" />
        </mxCell>
        <mxCell id="r7DnVKMwtTVWdu5Gzjm_-14" value="" style="edgeStyle=orthogonalEdgeStyle;rounded=0;orthogonalLoop=1;jettySize=auto;html=1;" parent="1" source="gZzGKzz8CknS4xBsOtCZ-161" target="r7DnVKMwtTVWdu5Gzjm_-11" edge="1">
          <mxGeometry relative="1" as="geometry" />
        </mxCell>
        <mxCell id="gZzGKzz8CknS4xBsOtCZ-161" value="2" style="strokeWidth=2;html=1;shape=mxgraph.flowchart.start_2;whiteSpace=wrap;" parent="1" vertex="1">
          <mxGeometry x="649.5" y="-180" width="60" height="60" as="geometry" />
        </mxCell>
        <mxCell id="r7DnVKMwtTVWdu5Gzjm_-12" value="" style="edgeStyle=orthogonalEdgeStyle;rounded=0;orthogonalLoop=1;jettySize=auto;html=1;" parent="1" source="gZzGKzz8CknS4xBsOtCZ-162" target="r7DnVKMwtTVWdu5Gzjm_-10" edge="1">
          <mxGeometry relative="1" as="geometry" />
        </mxCell>
        <mxCell id="gZzGKzz8CknS4xBsOtCZ-162" value="1" style="strokeWidth=2;html=1;shape=mxgraph.flowchart.start_2;whiteSpace=wrap;" parent="1" vertex="1">
          <mxGeometry x="-260" y="-150" width="60" height="60" as="geometry" />
        </mxCell>
        <mxCell id="gZzGKzz8CknS4xBsOtCZ-166" value="1" style="strokeWidth=2;html=1;shape=mxgraph.flowchart.start_2;whiteSpace=wrap;" parent="1" vertex="1">
          <mxGeometry x="185.5" y="-410" width="60" height="60" as="geometry" />
        </mxCell>
        <mxCell id="gZzGKzz8CknS4xBsOtCZ-169" value="2" style="strokeWidth=2;html=1;shape=mxgraph.flowchart.start_2;whiteSpace=wrap;" parent="1" vertex="1">
          <mxGeometry x="370" y="-390" width="60" height="60" as="geometry" />
        </mxCell>
        <mxCell id="gZzGKzz8CknS4xBsOtCZ-171" value="3" style="strokeWidth=2;html=1;shape=mxgraph.flowchart.start_2;whiteSpace=wrap;" parent="1" vertex="1">
          <mxGeometry x="545" y="-395" width="60" height="60" as="geometry" />
        </mxCell>
        <mxCell id="nedBv2nIHsPxGfgc8wMB-2" value="Pilih Menu" style="shape=parallelogram;perimeter=parallelogramPerimeter;whiteSpace=wrap;html=1;fixedSize=1;" parent="1" vertex="1">
          <mxGeometry x="341.5" y="-900" width="120" height="60" as="geometry" />
        </mxCell>
        <mxCell id="r7DnVKMwtTVWdu5Gzjm_-41" value="" style="edgeStyle=orthogonalEdgeStyle;rounded=0;orthogonalLoop=1;jettySize=auto;html=1;" parent="1" source="XNF7zPnJHE5-cx8IuBFz-3" target="r7DnVKMwtTVWdu5Gzjm_-8" edge="1">
          <mxGeometry relative="1" as="geometry" />
        </mxCell>
        <mxCell id="XNF7zPnJHE5-cx8IuBFz-3" value="5" style="strokeWidth=2;html=1;shape=mxgraph.flowchart.start_2;whiteSpace=wrap;" parent="1" vertex="1">
          <mxGeometry x="205.5" y="-1040" width="60" height="60" as="geometry" />
        </mxCell>
        <mxCell id="XNF7zPnJHE5-cx8IuBFz-10" value="" style="edgeStyle=orthogonalEdgeStyle;rounded=0;orthogonalLoop=1;jettySize=auto;html=1;" parent="1" source="XNF7zPnJHE5-cx8IuBFz-7" edge="1">
          <mxGeometry relative="1" as="geometry">
            <mxPoint x="790" y="-395" as="targetPoint" />
          </mxGeometry>
        </mxCell>
        <mxCell id="XNF7zPnJHE5-cx8IuBFz-7" value="Pilihan Tidak Valid.&lt;br&gt;Silahkan Coba Lagi" style="shape=parallelogram;html=1;strokeWidth=2;perimeter=parallelogramPerimeter;whiteSpace=wrap;rounded=1;arcSize=12;size=0.23;" parent="1" vertex="1">
          <mxGeometry x="710" y="-510" width="160" height="75" as="geometry" />
        </mxCell>
        <mxCell id="XNF7zPnJHE5-cx8IuBFz-35" value="" style="edgeStyle=orthogonalEdgeStyle;rounded=0;orthogonalLoop=1;jettySize=auto;html=1;" parent="1" source="XNF7zPnJHE5-cx8IuBFz-12" target="XNF7zPnJHE5-cx8IuBFz-34" edge="1">
          <mxGeometry relative="1" as="geometry" />
        </mxCell>
        <mxCell id="XNF7zPnJHE5-cx8IuBFz-12" value="Tekan Enter Untuk&lt;br&gt;Kembali Ke Menu Utama" style="shape=parallelogram;html=1;strokeWidth=2;perimeter=parallelogramPerimeter;whiteSpace=wrap;rounded=1;arcSize=12;size=0.23;" parent="1" vertex="1">
          <mxGeometry x="-385" y="920" width="170" height="99" as="geometry" />
        </mxCell>
        <mxCell id="XNF7zPnJHE5-cx8IuBFz-36" value="" style="edgeStyle=orthogonalEdgeStyle;rounded=0;orthogonalLoop=1;jettySize=auto;html=1;" parent="1" source="XNF7zPnJHE5-cx8IuBFz-17" target="XNF7zPnJHE5-cx8IuBFz-31" edge="1">
          <mxGeometry relative="1" as="geometry" />
        </mxCell>
        <mxCell id="XNF7zPnJHE5-cx8IuBFz-17" value="Tekan Enter Untuk&lt;br&gt;Kembali Ke Menu Utama" style="shape=parallelogram;html=1;strokeWidth=2;perimeter=parallelogramPerimeter;whiteSpace=wrap;rounded=1;arcSize=12;size=0.23;" parent="1" vertex="1">
          <mxGeometry x="515.5" y="900" width="170" height="99" as="geometry" />
        </mxCell>
        <mxCell id="XNF7zPnJHE5-cx8IuBFz-37" value="" style="edgeStyle=orthogonalEdgeStyle;rounded=0;orthogonalLoop=1;jettySize=auto;html=1;" parent="1" source="XNF7zPnJHE5-cx8IuBFz-20" target="XNF7zPnJHE5-cx8IuBFz-33" edge="1">
          <mxGeometry relative="1" as="geometry" />
        </mxCell>
        <mxCell id="XNF7zPnJHE5-cx8IuBFz-20" value="Tekan Enter Untuk&lt;br&gt;Kembali Ke Menu Utama" style="shape=parallelogram;html=1;strokeWidth=2;perimeter=parallelogramPerimeter;whiteSpace=wrap;rounded=1;arcSize=12;size=0.23;" parent="1" vertex="1">
          <mxGeometry x="1380" y="890" width="170" height="99" as="geometry" />
        </mxCell>
        <mxCell id="XNF7zPnJHE5-cx8IuBFz-31" value="5" style="strokeWidth=2;html=1;shape=mxgraph.flowchart.start_2;whiteSpace=wrap;" parent="1" vertex="1">
          <mxGeometry x="570.5" y="1060" width="60" height="60" as="geometry" />
        </mxCell>
        <mxCell id="XNF7zPnJHE5-cx8IuBFz-33" value="5" style="strokeWidth=2;html=1;shape=mxgraph.flowchart.start_2;whiteSpace=wrap;" parent="1" vertex="1">
          <mxGeometry x="1435" y="1030" width="60" height="60" as="geometry" />
        </mxCell>
        <mxCell id="XNF7zPnJHE5-cx8IuBFz-34" value="5" style="strokeWidth=2;html=1;shape=mxgraph.flowchart.start_2;whiteSpace=wrap;" parent="1" vertex="1">
          <mxGeometry x="-330" y="1069.5" width="60" height="60" as="geometry" />
        </mxCell>
        <mxCell id="r7DnVKMwtTVWdu5Gzjm_-45" style="edgeStyle=orthogonalEdgeStyle;rounded=0;orthogonalLoop=1;jettySize=auto;html=1;entryX=1;entryY=0.5;entryDx=0;entryDy=0;" parent="1" source="r7DnVKMwtTVWdu5Gzjm_-1" target="r7DnVKMwtTVWdu5Gzjm_-8" edge="1">
          <mxGeometry relative="1" as="geometry">
            <mxPoint x="900" y="-1010" as="targetPoint" />
            <Array as="points">
              <mxPoint x="890" y="-345" />
              <mxPoint x="890" y="-1010" />
            </Array>
          </mxGeometry>
        </mxCell>
        <mxCell id="r7DnVKMwtTVWdu5Gzjm_-1" value="Tekan Enter Untuk&lt;br&gt;Kembali Ke Menu Utama" style="shape=parallelogram;html=1;strokeWidth=2;perimeter=parallelogramPerimeter;whiteSpace=wrap;rounded=1;arcSize=12;size=0.23;" parent="1" vertex="1">
          <mxGeometry x="700" y="-395" width="170" height="99" as="geometry" />
        </mxCell>
        <mxCell id="r7DnVKMwtTVWdu5Gzjm_-8" value="Clear screen" style="shape=parallelogram;html=1;strokeWidth=2;perimeter=parallelogramPerimeter;whiteSpace=wrap;rounded=1;arcSize=12;size=0.23;" parent="1" vertex="1">
          <mxGeometry x="350" y="-1040" width="100" height="60" as="geometry" />
        </mxCell>
        <mxCell id="r7DnVKMwtTVWdu5Gzjm_-17" value="" style="edgeStyle=orthogonalEdgeStyle;rounded=0;orthogonalLoop=1;jettySize=auto;html=1;" parent="1" source="r7DnVKMwtTVWdu5Gzjm_-9" target="gZzGKzz8CknS4xBsOtCZ-106" edge="1">
          <mxGeometry relative="1" as="geometry" />
        </mxCell>
        <mxCell id="r7DnVKMwtTVWdu5Gzjm_-9" value="Clear screen" style="shape=parallelogram;html=1;strokeWidth=2;perimeter=parallelogramPerimeter;whiteSpace=wrap;rounded=1;arcSize=12;size=0.23;" parent="1" vertex="1">
          <mxGeometry x="1490" y="-90" width="100" height="60" as="geometry" />
        </mxCell>
        <mxCell id="r7DnVKMwtTVWdu5Gzjm_-13" value="" style="edgeStyle=orthogonalEdgeStyle;rounded=0;orthogonalLoop=1;jettySize=auto;html=1;" parent="1" source="r7DnVKMwtTVWdu5Gzjm_-10" target="gZzGKzz8CknS4xBsOtCZ-26" edge="1">
          <mxGeometry relative="1" as="geometry" />
        </mxCell>
        <mxCell id="r7DnVKMwtTVWdu5Gzjm_-10" value="Clear screen" style="shape=parallelogram;html=1;strokeWidth=2;perimeter=parallelogramPerimeter;whiteSpace=wrap;rounded=1;arcSize=12;size=0.23;" parent="1" vertex="1">
          <mxGeometry x="-280" y="-30" width="100" height="60" as="geometry" />
        </mxCell>
        <mxCell id="r7DnVKMwtTVWdu5Gzjm_-15" value="" style="edgeStyle=orthogonalEdgeStyle;rounded=0;orthogonalLoop=1;jettySize=auto;html=1;" parent="1" source="r7DnVKMwtTVWdu5Gzjm_-11" target="gZzGKzz8CknS4xBsOtCZ-73" edge="1">
          <mxGeometry relative="1" as="geometry" />
        </mxCell>
        <mxCell id="r7DnVKMwtTVWdu5Gzjm_-11" value="Clear screen" style="shape=parallelogram;html=1;strokeWidth=2;perimeter=parallelogramPerimeter;whiteSpace=wrap;rounded=1;arcSize=12;size=0.23;" parent="1" vertex="1">
          <mxGeometry x="629.5" y="-70" width="100" height="60" as="geometry" />
        </mxCell>
        <mxCell id="r7DnVKMwtTVWdu5Gzjm_-20" value="" style="edgeStyle=orthogonalEdgeStyle;rounded=0;orthogonalLoop=1;jettySize=auto;html=1;" parent="1" source="r7DnVKMwtTVWdu5Gzjm_-18" target="gZzGKzz8CknS4xBsOtCZ-38" edge="1">
          <mxGeometry relative="1" as="geometry" />
        </mxCell>
        <mxCell id="r7DnVKMwtTVWdu5Gzjm_-18" value="Clear screen" style="shape=parallelogram;html=1;strokeWidth=2;perimeter=parallelogramPerimeter;whiteSpace=wrap;rounded=1;arcSize=12;size=0.23;" parent="1" vertex="1">
          <mxGeometry x="-581" y="309" width="100" height="60" as="geometry" />
        </mxCell>
        <mxCell id="r7DnVKMwtTVWdu5Gzjm_-25" value="" style="edgeStyle=orthogonalEdgeStyle;rounded=0;orthogonalLoop=1;jettySize=auto;html=1;" parent="1" source="r7DnVKMwtTVWdu5Gzjm_-21" target="gZzGKzz8CknS4xBsOtCZ-48" edge="1">
          <mxGeometry relative="1" as="geometry" />
        </mxCell>
        <mxCell id="r7DnVKMwtTVWdu5Gzjm_-21" value="Clear screen" style="shape=parallelogram;html=1;strokeWidth=2;perimeter=parallelogramPerimeter;whiteSpace=wrap;rounded=1;arcSize=12;size=0.23;" parent="1" vertex="1">
          <mxGeometry x="-350" y="396" width="100" height="60" as="geometry" />
        </mxCell>
        <mxCell id="r7DnVKMwtTVWdu5Gzjm_-28" value="" style="edgeStyle=orthogonalEdgeStyle;rounded=0;orthogonalLoop=1;jettySize=auto;html=1;" parent="1" source="r7DnVKMwtTVWdu5Gzjm_-26" target="gZzGKzz8CknS4xBsOtCZ-56" edge="1">
          <mxGeometry relative="1" as="geometry" />
        </mxCell>
        <mxCell id="r7DnVKMwtTVWdu5Gzjm_-26" value="Clear screen" style="shape=parallelogram;html=1;strokeWidth=2;perimeter=parallelogramPerimeter;whiteSpace=wrap;rounded=1;arcSize=12;size=0.23;" parent="1" vertex="1">
          <mxGeometry x="-130" y="409" width="100" height="60" as="geometry" />
        </mxCell>
        <mxCell id="r7DnVKMwtTVWdu5Gzjm_-31" value="" style="edgeStyle=orthogonalEdgeStyle;rounded=0;orthogonalLoop=1;jettySize=auto;html=1;" parent="1" source="r7DnVKMwtTVWdu5Gzjm_-29" target="gZzGKzz8CknS4xBsOtCZ-75" edge="1">
          <mxGeometry relative="1" as="geometry" />
        </mxCell>
        <mxCell id="r7DnVKMwtTVWdu5Gzjm_-29" value="Clear screen" style="shape=parallelogram;html=1;strokeWidth=2;perimeter=parallelogramPerimeter;whiteSpace=wrap;rounded=1;arcSize=12;size=0.23;" parent="1" vertex="1">
          <mxGeometry x="371.5" y="278.5" width="100" height="60" as="geometry" />
        </mxCell>
        <mxCell id="r7DnVKMwtTVWdu5Gzjm_-34" value="" style="edgeStyle=orthogonalEdgeStyle;rounded=0;orthogonalLoop=1;jettySize=auto;html=1;" parent="1" source="r7DnVKMwtTVWdu5Gzjm_-32" target="gZzGKzz8CknS4xBsOtCZ-87" edge="1">
          <mxGeometry relative="1" as="geometry" />
        </mxCell>
        <mxCell id="r7DnVKMwtTVWdu5Gzjm_-32" value="Clear screen" style="shape=parallelogram;html=1;strokeWidth=2;perimeter=parallelogramPerimeter;whiteSpace=wrap;rounded=1;arcSize=12;size=0.23;" parent="1" vertex="1">
          <mxGeometry x="629.5" y="365.5" width="100" height="60" as="geometry" />
        </mxCell>
        <mxCell id="r7DnVKMwtTVWdu5Gzjm_-37" value="" style="edgeStyle=orthogonalEdgeStyle;rounded=0;orthogonalLoop=1;jettySize=auto;html=1;" parent="1" source="r7DnVKMwtTVWdu5Gzjm_-35" target="gZzGKzz8CknS4xBsOtCZ-101" edge="1">
          <mxGeometry relative="1" as="geometry" />
        </mxCell>
        <mxCell id="r7DnVKMwtTVWdu5Gzjm_-35" value="Clear screen" style="shape=parallelogram;html=1;strokeWidth=2;perimeter=parallelogramPerimeter;whiteSpace=wrap;rounded=1;arcSize=12;size=0.23;" parent="1" vertex="1">
          <mxGeometry x="1225" y="301.5" width="100" height="60" as="geometry" />
        </mxCell>
        <mxCell id="r7DnVKMwtTVWdu5Gzjm_-40" value="" style="edgeStyle=orthogonalEdgeStyle;rounded=0;orthogonalLoop=1;jettySize=auto;html=1;" parent="1" source="r7DnVKMwtTVWdu5Gzjm_-38" target="gZzGKzz8CknS4xBsOtCZ-114" edge="1">
          <mxGeometry relative="1" as="geometry" />
        </mxCell>
        <mxCell id="r7DnVKMwtTVWdu5Gzjm_-38" value="Clear screen" style="shape=parallelogram;html=1;strokeWidth=2;perimeter=parallelogramPerimeter;whiteSpace=wrap;rounded=1;arcSize=12;size=0.23;" parent="1" vertex="1">
          <mxGeometry x="1490" y="301.5" width="100" height="60" as="geometry" />
        </mxCell>
        <mxCell id="r7DnVKMwtTVWdu5Gzjm_-48" value="Start" style="strokeWidth=2;html=1;shape=mxgraph.flowchart.start_1;whiteSpace=wrap;" parent="1" vertex="1">
          <mxGeometry x="350" y="-1150" width="100" height="60" as="geometry" />
        </mxCell>
        <mxCell id="r7DnVKMwtTVWdu5Gzjm_-49" value="End" style="strokeWidth=2;html=1;shape=mxgraph.flowchart.start_1;whiteSpace=wrap;" parent="1" vertex="1">
          <mxGeometry x="-15" y="-375" width="100" height="60" as="geometry" />
        </mxCell>
        <mxCell id="r7DnVKMwtTVWdu5Gzjm_-50" value="" style="endArrow=classic;html=1;rounded=0;exitX=0.727;exitY=0.208;exitDx=0;exitDy=0;entryX=0.5;entryY=0;entryDx=0;entryDy=0;exitPerimeter=0;" parent="1" source="gZzGKzz8CknS4xBsOtCZ-26" target="gZzGKzz8CknS4xBsOtCZ-143" edge="1">
          <mxGeometry width="50" height="50" relative="1" as="geometry">
            <mxPoint x="-120" y="120" as="sourcePoint" />
            <mxPoint x="-70" y="70" as="targetPoint" />
            <Array as="points">
              <mxPoint x="45" y="150" />
            </Array>
          </mxGeometry>
        </mxCell>
      </root>
    </mxGraphModel>
  </diagram>
</mxfile>
